<svg width="72" height="40" viewBox="0 0 72 40" fill="none" xmlns="http://www.w3.org/2000/svg">
<g clip-path="url(#clip0_413_2280)">
<mask id="mask0_413_2280" style="mask-type:alpha" maskUnits="userSpaceOnUse" x="0" y="4" width="72" height="32">
<rect y="4.26294" width="71.2344" height="31.0145" fill="url(#paint0_linear_413_2280)"/>
</mask>
<g mask="url(#mask0_413_2280)">
<path d="M62.3063 8.33625L58.28 6.99126L41.6984 7.04316L38.828 6.01202L36.3993 7.02092L26.0212 6.9925L21.9091 5.10692H15.9298L15.0049 6.99188H9.79365L0 22.5881L10.902 34.8938H60.3558L71.2579 22.5881L62.3057 8.33563L62.3063 8.33625ZM60.1044 34.3359H11.1535L0.695663 22.5312L10.1032 7.54977H15.354L16.2783 5.66481H21.7873L25.8983 7.54977L36.5099 7.57881L38.8422 6.60945L41.6014 7.60105L58.1898 7.54915L61.9393 8.80147L70.5622 22.53L60.1044 34.3347V34.3359Z" fill="url(#paint1_linear_413_2280)"/>
</g>
<path d="M70.5628 22.5312L60.1044 34.3352H11.1534L0.695648 22.5312L10.1032 7.54971H15.354L16.2782 5.66475H21.7873L25.8989 7.54971L36.5099 7.57937L38.8422 6.61001L41.6014 7.60161L58.1898 7.54971L61.9393 8.80265L70.5628 22.5312Z" fill="url(#paint2_linear_413_2280)"/>
<path d="M70.5614 22.5312L61.9398 8.80264L58.189 7.55032L41.6018 7.60098L38.8427 6.60939L36.5092 7.57874L25.8981 7.55032L21.7872 5.66536H16.2787L15.3545 7.55032H10.1043L0.696121 22.5312H6.98736L11.7291 26.0558H19.4086L20.5583 22.5312H25.5398L26.6846 17.5441H27.8208L29.3555 16.8757L29.0336 20.2601L33.2767 22.5312H70.5614Z" fill="#4A357D"/>
<path d="M4.02754 20.6895H9.38711L10.3083 18.9225H7.93153L9.61323 15.9743L12.3687 14.971L13.2392 13.3028L10.6166 14.2154L12.0122 11.7682L11.1899 10.5258H12.7215H14.6874L15.2786 9.39206H11.1226L4.02754 20.6895Z" fill="white"/>
<path d="M17.4274 7.50642L14.3161 13.8551L18.0885 16.0941L19.5687 16.8589L17.3285 18.0754L15.7475 22.1957H13.2102L15.9236 15.923L13.8966 14.7108L10.0642 22.5293L12.3372 24.2141H18.0724L20.9137 15.5004L17.0308 13.3633L19.1208 8.532H20.9891L22.2606 9.06641L20.4621 9.90603L19.2345 13.1069L21.3271 14.2314L23.2398 8.36519L21.3827 7.50642H17.4274Z" fill="white"/>
<path d="M24.4217 9.39194L21.1769 20.6894H24.0726L25.2181 15.7023H27.4373L30.194 14.5019L30.7049 10.3539L28.5771 9.39194H24.4211H24.4217ZM28.1428 11.8008L27.698 14.2628H25.5492L26.4074 10.525H28.3733L29.8239 11.115L28.1428 11.8002V11.8008Z" fill="white"/>
<path d="M31.9171 9.39194L30.983 19.2146L33.7384 20.6894H39.098L38.3856 10.3539L36.0738 9.39194H31.9177H31.9171ZM36.1127 12.8678L36.1819 18.9218H33.8051L34.1209 10.525H36.0867L37.5973 11.115L36.1133 12.8678H36.1127Z" fill="white"/>
<path d="M39.9704 10.3582L41.0917 20.6894H43.9874L43.1589 15.7023H45.3781L46.4506 20.6894H49.347L48.0477 15.9229L46.3431 15.2013L47.6603 14.5019L46.2672 9.39194H42.1111L39.9704 10.3582ZM45.0692 14.2628H42.9204L42.5139 11.8138L40.8371 11.1156L42.2995 10.5256H44.2654L45.0692 14.2634V14.2628Z" fill="white"/>
<path d="M47.3415 10.5256H49.2771L52.7313 20.6894H55.6277L52.0765 11.7532L50.0482 10.512H53.4882L52.9902 9.39194H47.011L47.3415 10.5256Z" fill="white"/>
<path d="M63.1749 14.2313L60.7315 10.3409L57.8895 9.39194H53.7334L55.8044 13.8551L61.7125 16.094L63.3263 18.9224H60.9489L59.3852 15.9229L56.201 14.7107L58.2905 19.2146L61.8707 20.6894H67.2303L63.9713 15.5003L58.0501 13.3633L57.2204 11.7718L55.0401 10.5256H58.5363L60.0086 13.1069L63.1749 14.2313Z" fill="white"/>
<path d="M38.9396 8.03828C38.6363 8.33422 38.2928 8.60853 37.9153 8.85751C38.328 9.10896 38.7203 9.39563 39.0866 9.71257C39.3974 9.39563 39.7397 9.10896 40.1079 8.85751C39.6866 8.60853 39.2949 8.33422 38.9396 8.03828Z" fill="#E2D45C"/>
<path d="M7.29342 19.2931L9.03258 16.2436C8.38757 16.3171 7.74813 16.3925 7.11425 16.4709L4.69797 20.3187H9.16232L9.69673 19.2931H7.29342Z" fill="url(#paint3_linear_413_2280)"/>
<path d="M19.7628 15.2902C19.0721 15.3353 18.3857 15.3835 17.7037 15.4348L18.2683 15.7696L20.1236 16.7279L20.4659 15.677L19.7628 15.2902ZM17.6252 18.3354L16.0028 22.5662H12.6462L15.4548 16.0742L14.7789 15.6702C14.4502 15.6986 14.1222 15.7276 13.796 15.7579L10.5333 22.4149L12.4596 23.8433H17.8031L20.0236 17.0337L17.6252 18.3354Z" fill="url(#paint4_linear_413_2280)"/>
<path d="M28.4279 14.867L27.3609 15.3316H24.9236L23.7782 20.3186H21.6696L23.1715 15.0888C24.9001 14.998 26.6529 14.9238 28.4279 14.867Z" fill="url(#paint5_linear_413_2280)"/>
<path d="M38.7007 20.3187H33.8317L31.3753 19.0046L31.7775 14.7793C32.3798 14.767 32.9841 14.7571 33.5908 14.7491L33.4203 19.2931H36.5569L36.505 14.725C36.7824 14.7243 37.0604 14.7237 37.3391 14.7237C37.6653 14.7237 37.9909 14.7243 38.3152 14.7256L38.7007 20.3187Z" fill="url(#paint6_linear_413_2280)"/>
<path d="M48.862 20.3187H46.7503L45.6778 15.3316H42.7215L43.55 20.3187H41.4241L40.8193 14.7453C42.6282 14.7676 44.4181 14.8077 46.1863 14.8646L45.4813 15.239L47.7376 16.1941L48.862 20.3187Z" fill="url(#paint7_linear_413_2280)"/>
<path d="M53.0368 15.1734C52.4325 15.1382 51.8252 15.1049 51.2148 15.074L52.9972 20.3186H55.0817L53.0368 15.1734Z" fill="url(#paint8_linear_413_2280)"/>
<path d="M63.8801 16.0514C63.2604 15.9866 62.6364 15.9236 62.0075 15.863L63.9647 19.2931H60.7243L59.1217 16.2195L57.081 15.4423C57.0353 15.4386 56.9902 15.4355 56.9445 15.4324L58.5663 18.9274L61.9439 20.3187H66.5602L63.8801 16.0514Z" fill="url(#paint9_linear_413_2280)"/>
<path fill-rule="evenodd" clip-rule="evenodd" d="M29.5306 29.0029V28.2405L27.4244 29.0239H27.4201V29.806H27.4244L29.5306 30.5894V29.8258L28.4512 29.4131L29.5306 29.0029Z" fill="#996DFF"/>
<path fill-rule="evenodd" clip-rule="evenodd" d="M41.7301 30.5499V29.7875L42.8088 29.3773L41.7301 28.967V28.2046L43.8332 28.9874H43.8381V29.7702H43.8332L41.7301 30.5493V30.5499ZM40.8269 27.1278L39.59 31.0979H40.3246L41.5615 27.1278H40.8269Z" fill="#996DFF"/>
<path fill-rule="evenodd" clip-rule="evenodd" d="M32.6253 28.0965C32.8342 28.3263 32.9441 28.6291 32.9312 28.9392V30.6302H32.1966V29.0943C32.2052 28.9231 32.1502 28.7551 32.0434 28.6216C31.9414 28.503 31.7907 28.4375 31.6344 28.4443C31.1747 28.4443 30.9443 28.7631 30.9443 29.4013V30.6308H30.2097V27.8543H30.9443V28.1052C31.1772 27.8784 31.4935 27.7579 31.8185 27.7715C32.1212 27.7586 32.4153 27.8772 32.6247 28.0965H32.6253Z" fill="white"/>
<path fill-rule="evenodd" clip-rule="evenodd" d="M33.8659 26.6996V30.6697H34.6005V26.6996H33.8659Z" fill="white"/>
<path fill-rule="evenodd" clip-rule="evenodd" d="M38.7509 30.5245H38.138L37.5375 28.8892L36.9314 30.5245H36.3197L35.2905 27.7431H36.0751L36.6534 29.4063L37.2496 27.7431H37.8223L38.4185 29.4118L38.9968 27.7431H39.7814L38.7509 30.5245Z" fill="white"/>
<path d="M2.99466 6.48218C3.82624 4.47365 5.50547 2.8908 7.98416 1.77811C10.359 0.71176 13.3684 0.118655 16.9277 0.0160969C24.2241 -0.194579 33.0323 1.67247 41.7281 5.27496C42.3534 5.53383 42.973 5.79949 43.5859 6.07195L42.7191 6.07442C42.3472 5.91317 41.9722 5.75439 41.5941 5.59808C23.7781 -1.78113 6.60704 -1.32457 3.31778 6.61624C2.36511 8.91576 2.67957 11.594 4.04001 14.4187C7.37561 21.3493 17.0055 29.1592 29.6634 34.402C30.8879 34.9092 32.1136 35.3812 33.3375 35.818C40.7631 38.4697 48.0972 39.8134 54.3199 39.6337C57.8334 39.5323 60.7971 38.9497 63.13 37.9025C65.5252 36.8275 67.1433 35.3071 67.9397 33.3838C68.6582 31.6484 68.6557 29.6973 68.0262 27.6301L68.2949 27.3267C69.0326 29.6052 69.0227 31.6854 68.2634 33.5179C67.4312 35.5264 65.7526 37.1093 63.2733 38.2219C60.8984 39.2883 57.8896 39.8814 54.3304 39.984C53.9585 39.9945 53.5828 40 53.2035 40C46.9308 40 39.6448 38.5377 32.3144 35.818C31.3859 35.4739 30.4573 35.1094 29.5293 34.7251C20.8335 31.1232 13.285 26.2159 8.27453 20.907C6.30431 18.8194 4.81166 16.7596 3.82254 14.7646C3.58406 14.2846 3.37524 13.8089 3.19607 13.3375C2.23042 10.7976 2.16246 8.49132 2.99466 6.48218Z" fill="url(#paint10_linear_413_2280)"/>
<path d="M2.99466 6.48218C3.82624 4.47365 5.50547 2.8908 7.98416 1.77811C10.359 0.71176 13.3684 0.118655 16.9277 0.0160969C24.2241 -0.194579 33.0323 1.67247 41.7281 5.27496C42.3534 5.53383 42.973 5.79949 43.5859 6.07195L42.7191 6.07442C42.3472 5.91317 41.9722 5.75439 41.5941 5.59808C23.7781 -1.78113 6.60704 -1.32457 3.31778 6.61624C2.36511 8.91576 2.67957 11.594 4.04001 14.4187C7.37561 21.3493 17.0055 29.1592 29.6634 34.402C30.8879 34.9092 32.1136 35.3812 33.3375 35.818C40.7631 38.4697 48.0972 39.8134 54.3199 39.6337C57.8334 39.5323 60.7971 38.9497 63.13 37.9025C65.5252 36.8275 67.1433 35.3071 67.9397 33.3838C68.6582 31.6484 68.6557 29.6973 68.0262 27.6301L68.2949 27.3267C69.0326 29.6052 69.0227 31.6854 68.2634 33.5179C67.4312 35.5264 65.7526 37.1093 63.2733 38.2219C60.8984 39.2883 57.8896 39.8814 54.3304 39.984C53.9585 39.9945 53.5828 40 53.2035 40C46.9308 40 39.6448 38.5377 32.3144 35.818C31.3859 35.4739 30.4573 35.1094 29.5293 34.7251C20.8335 31.1232 13.285 26.2159 8.27453 20.907C6.30431 18.8194 4.81166 16.7596 3.82254 14.7646C3.58406 14.2846 3.37524 13.8089 3.19607 13.3375C2.23042 10.7976 2.16246 8.49132 2.99466 6.48218Z" fill="url(#paint11_radial_413_2280)"/>
<path d="M2.99466 6.48218C3.82624 4.47365 5.50547 2.8908 7.98416 1.77811C10.359 0.71176 13.3684 0.118655 16.9277 0.0160969C24.2241 -0.194579 33.0323 1.67247 41.7281 5.27496C42.3534 5.53383 42.973 5.79949 43.5859 6.07195L42.7191 6.07442C42.3472 5.91317 41.9722 5.75439 41.5941 5.59808C23.7781 -1.78113 6.60704 -1.32457 3.31778 6.61624C2.36511 8.91576 2.67957 11.594 4.04001 14.4187C7.37561 21.3493 17.0055 29.1592 29.6634 34.402C30.8879 34.9092 32.1136 35.3812 33.3375 35.818C40.7631 38.4697 48.0972 39.8134 54.3199 39.6337C57.8334 39.5323 60.7971 38.9497 63.13 37.9025C65.5252 36.8275 67.1433 35.3071 67.9397 33.3838C68.6582 31.6484 68.6557 29.6973 68.0262 27.6301L68.2949 27.3267C69.0326 29.6052 69.0227 31.6854 68.2634 33.5179C67.4312 35.5264 65.7526 37.1093 63.2733 38.2219C60.8984 39.2883 57.8896 39.8814 54.3304 39.984C53.9585 39.9945 53.5828 40 53.2035 40C46.9308 40 39.6448 38.5377 32.3144 35.818C31.3859 35.4739 30.4573 35.1094 29.5293 34.7251C20.8335 31.1232 13.285 26.2159 8.27453 20.907C6.30431 18.8194 4.81166 16.7596 3.82254 14.7646C3.58406 14.2846 3.37524 13.8089 3.19607 13.3375C2.23042 10.7976 2.16246 8.49132 2.99466 6.48218Z" fill="url(#paint12_radial_413_2280)"/>
<path d="M2.99466 6.48218C3.82624 4.47365 5.50547 2.8908 7.98416 1.77811C10.359 0.71176 13.3684 0.118655 16.9277 0.0160969C24.2241 -0.194579 33.0323 1.67247 41.7281 5.27496C42.3534 5.53383 42.973 5.79949 43.5859 6.07195L42.7191 6.07442C42.3472 5.91317 41.9722 5.75439 41.5941 5.59808C23.7781 -1.78113 6.60704 -1.32457 3.31778 6.61624C2.36511 8.91576 2.67957 11.594 4.04001 14.4187C7.37561 21.3493 17.0055 29.1592 29.6634 34.402C30.8879 34.9092 32.1136 35.3812 33.3375 35.818C40.7631 38.4697 48.0972 39.8134 54.3199 39.6337C57.8334 39.5323 60.7971 38.9497 63.13 37.9025C65.5252 36.8275 67.1433 35.3071 67.9397 33.3838C68.6582 31.6484 68.6557 29.6973 68.0262 27.6301L68.2949 27.3267C69.0326 29.6052 69.0227 31.6854 68.2634 33.5179C67.4312 35.5264 65.7526 37.1093 63.2733 38.2219C60.8984 39.2883 57.8896 39.8814 54.3304 39.984C53.9585 39.9945 53.5828 40 53.2035 40C46.9308 40 39.6448 38.5377 32.3144 35.818C31.3859 35.4739 30.4573 35.1094 29.5293 34.7251C20.8335 31.1232 13.285 26.2159 8.27453 20.907C6.30431 18.8194 4.81166 16.7596 3.82254 14.7646C3.58406 14.2846 3.37524 13.8089 3.19607 13.3375C2.23042 10.7976 2.16246 8.49132 2.99466 6.48218Z" fill="url(#paint13_radial_413_2280)"/>
<path d="M68.2634 6.48218C67.4318 4.47365 65.7525 2.8908 63.2739 1.77811C60.899 0.71176 57.8896 0.118655 54.3303 0.0160969C47.0339 -0.194579 38.2257 1.67247 29.5299 5.27496C28.9047 5.53383 28.285 5.79949 27.6721 6.07195L28.5389 6.07442C28.9108 5.91317 29.2859 5.75439 29.664 5.59808C47.48 -1.78113 64.651 -1.32457 67.9402 6.61624C68.8929 8.91576 68.5784 11.594 67.218 14.4187C63.8824 21.3493 54.2525 29.1592 41.5946 34.402C40.3701 34.9092 39.1444 35.3812 37.9205 35.818C30.4949 38.4697 23.1608 39.8134 16.9381 39.6337C13.4246 39.5323 10.4609 38.9497 8.12806 37.9025C5.73278 36.8275 4.11472 35.3071 3.31835 33.3838C2.59983 31.6484 2.6023 29.6973 3.23186 27.6301L2.96311 27.3267C2.22543 29.6052 2.23532 31.6854 2.99462 33.5179C3.82682 35.5264 5.50543 37.1093 7.98473 38.2219C10.3596 39.2883 13.3684 39.8814 16.9276 39.984C17.2996 39.9945 17.6752 40 18.0545 40C24.3272 40 31.6132 38.5377 38.9436 35.818C39.8722 35.4739 40.8007 35.1094 41.7287 34.7251C50.4245 31.1232 57.973 26.2159 62.9835 20.907C64.9537 18.8194 66.4464 16.7596 67.4355 14.7646C67.674 14.2846 67.8828 13.8089 68.062 13.3375C69.0276 10.7976 69.0956 8.49132 68.2634 6.48218Z" fill="url(#paint14_linear_413_2280)"/>
<path d="M68.2634 6.48218C67.4318 4.47365 65.7525 2.8908 63.2739 1.77811C60.899 0.71176 57.8896 0.118655 54.3303 0.0160969C47.0339 -0.194579 38.2257 1.67247 29.5299 5.27496C28.9047 5.53383 28.285 5.79949 27.6721 6.07195L28.5389 6.07442C28.9108 5.91317 29.2859 5.75439 29.664 5.59808C47.48 -1.78113 64.651 -1.32457 67.9402 6.61624C68.8929 8.91576 68.5784 11.594 67.218 14.4187C63.8824 21.3493 54.2525 29.1592 41.5946 34.402C40.3701 34.9092 39.1444 35.3812 37.9205 35.818C30.4949 38.4697 23.1608 39.8134 16.9381 39.6337C13.4246 39.5323 10.4609 38.9497 8.12806 37.9025C5.73278 36.8275 4.11472 35.3071 3.31835 33.3838C2.59983 31.6484 2.6023 29.6973 3.23186 27.6301L2.96311 27.3267C2.22543 29.6052 2.23532 31.6854 2.99462 33.5179C3.82682 35.5264 5.50543 37.1093 7.98473 38.2219C10.3596 39.2883 13.3684 39.8814 16.9276 39.984C17.2996 39.9945 17.6752 40 18.0545 40C24.3272 40 31.6132 38.5377 38.9436 35.818C39.8722 35.4739 40.8007 35.1094 41.7287 34.7251C50.4245 31.1232 57.973 26.2159 62.9835 20.907C64.9537 18.8194 66.4464 16.7596 67.4355 14.7646C67.674 14.2846 67.8828 13.8089 68.062 13.3375C69.0276 10.7976 69.0956 8.49132 68.2634 6.48218Z" fill="url(#paint15_radial_413_2280)"/>
<path d="M68.2634 6.48218C67.4318 4.47365 65.7525 2.8908 63.2739 1.77811C60.899 0.71176 57.8896 0.118655 54.3303 0.0160969C47.0339 -0.194579 38.2257 1.67247 29.5299 5.27496C28.9047 5.53383 28.285 5.79949 27.6721 6.07195L28.5389 6.07442C28.9108 5.91317 29.2859 5.75439 29.664 5.59808C47.48 -1.78113 64.651 -1.32457 67.9402 6.61624C68.8929 8.91576 68.5784 11.594 67.218 14.4187C63.8824 21.3493 54.2525 29.1592 41.5946 34.402C40.3701 34.9092 39.1444 35.3812 37.9205 35.818C30.4949 38.4697 23.1608 39.8134 16.9381 39.6337C13.4246 39.5323 10.4609 38.9497 8.12806 37.9025C5.73278 36.8275 4.11472 35.3071 3.31835 33.3838C2.59983 31.6484 2.6023 29.6973 3.23186 27.6301L2.96311 27.3267C2.22543 29.6052 2.23532 31.6854 2.99462 33.5179C3.82682 35.5264 5.50543 37.1093 7.98473 38.2219C10.3596 39.2883 13.3684 39.8814 16.9276 39.984C17.2996 39.9945 17.6752 40 18.0545 40C24.3272 40 31.6132 38.5377 38.9436 35.818C39.8722 35.4739 40.8007 35.1094 41.7287 34.7251C50.4245 31.1232 57.973 26.2159 62.9835 20.907C64.9537 18.8194 66.4464 16.7596 67.4355 14.7646C67.674 14.2846 67.8828 13.8089 68.062 13.3375C69.0276 10.7976 69.0956 8.49132 68.2634 6.48218Z" fill="url(#paint16_radial_413_2280)"/>
</g>
<defs>
<linearGradient id="paint0_linear_413_2280" x1="35.6172" y1="18.689" x2="35.6172" y2="33.8873" gradientUnits="userSpaceOnUse">
<stop stop-color="#D9D9D9"/>
<stop offset="1" stop-color="#D9D9D9" stop-opacity="0"/>
</linearGradient>
<linearGradient id="paint1_linear_413_2280" x1="0" y1="20" x2="71.2585" y2="20" gradientUnits="userSpaceOnUse">
<stop stop-color="#996DFF"/>
<stop offset="0.5" stop-color="#35E8B3"/>
<stop offset="1" stop-color="#E2D45C"/>
</linearGradient>
<linearGradient id="paint2_linear_413_2280" x1="35.6289" y1="22.9779" x2="35.6289" y2="34.0417" gradientUnits="userSpaceOnUse">
<stop stop-color="#28203E"/>
<stop offset="1" stop-color="#121214" stop-opacity="0"/>
</linearGradient>
<linearGradient id="paint3_linear_413_2280" x1="7.19766" y1="15.2538" x2="7.19766" y2="19.6138" gradientUnits="userSpaceOnUse">
<stop stop-color="#A9A9AD"/>
<stop offset="1" stop-color="#A9A9AD" stop-opacity="0"/>
</linearGradient>
<linearGradient id="paint4_linear_413_2280" x1="15.4999" y1="15.2538" x2="15.4999" y2="19.6137" gradientUnits="userSpaceOnUse">
<stop stop-color="#A9A9AD"/>
<stop offset="1" stop-color="#A9A9AD" stop-opacity="0"/>
</linearGradient>
<linearGradient id="paint5_linear_413_2280" x1="25.049" y1="15.2538" x2="25.049" y2="19.6137" gradientUnits="userSpaceOnUse">
<stop stop-color="#A9A9AD"/>
<stop offset="1" stop-color="#A9A9AD" stop-opacity="0"/>
</linearGradient>
<linearGradient id="paint6_linear_413_2280" x1="35.0383" y1="15.2538" x2="35.0383" y2="19.6138" gradientUnits="userSpaceOnUse">
<stop stop-color="#A9A9AD"/>
<stop offset="1" stop-color="#A9A9AD" stop-opacity="0"/>
</linearGradient>
<linearGradient id="paint7_linear_413_2280" x1="44.8407" y1="15.2538" x2="44.8407" y2="19.6137" gradientUnits="userSpaceOnUse">
<stop stop-color="#A9A9AD"/>
<stop offset="1" stop-color="#A9A9AD" stop-opacity="0"/>
</linearGradient>
<linearGradient id="paint8_linear_413_2280" x1="53.1486" y1="15.2537" x2="53.1486" y2="19.6137" gradientUnits="userSpaceOnUse">
<stop stop-color="#A9A9AD"/>
<stop offset="1" stop-color="#A9A9AD" stop-opacity="0"/>
</linearGradient>
<linearGradient id="paint9_linear_413_2280" x1="61.7523" y1="15.2538" x2="61.7523" y2="19.6138" gradientUnits="userSpaceOnUse">
<stop stop-color="#A9A9AD"/>
<stop offset="1" stop-color="#A9A9AD" stop-opacity="0"/>
</linearGradient>
<linearGradient id="paint10_linear_413_2280" x1="64.6547" y1="28.6359" x2="16.5267" y2="28.883" gradientUnits="userSpaceOnUse">
<stop stop-color="#996DFF"/>
<stop offset="0.5" stop-color="#35E8B3"/>
<stop offset="1" stop-color="#E2D45C"/>
</linearGradient>
<radialGradient id="paint11_radial_413_2280" cx="0" cy="0" r="1" gradientUnits="userSpaceOnUse" gradientTransform="translate(35.1895 36.5531) rotate(15.7611) scale(32.3527 53.7243)">
<stop stop-color="#171226"/>
<stop offset="1" stop-color="#171226" stop-opacity="0"/>
</radialGradient>
<radialGradient id="paint12_radial_413_2280" cx="0" cy="0" r="1" gradientUnits="userSpaceOnUse" gradientTransform="translate(43.485 6.25003) rotate(-157.036) scale(7.2816 12.0917)">
<stop stop-color="#261945"/>
<stop offset="1" stop-color="#261945" stop-opacity="0"/>
</radialGradient>
<radialGradient id="paint13_radial_413_2280" cx="0" cy="0" r="1" gradientUnits="userSpaceOnUse" gradientTransform="translate(68.3713 26.8182) rotate(76.7293) scale(8.25062 13.7008)">
<stop stop-color="#191326"/>
<stop offset="1" stop-color="#191326" stop-opacity="0"/>
</radialGradient>
<linearGradient id="paint14_linear_413_2280" x1="37.4621" y1="4.43185" x2="48.2197" y2="31.7046" gradientUnits="userSpaceOnUse">
<stop stop-color="#996DFF"/>
<stop offset="0.5" stop-color="#35E8B3"/>
<stop offset="1" stop-color="#E2D45C"/>
</linearGradient>
<radialGradient id="paint15_radial_413_2280" cx="0" cy="0" r="1" gradientUnits="userSpaceOnUse" gradientTransform="translate(27.0076 6.85609) rotate(-19.3523) scale(16.4603 27.3337)">
<stop stop-color="#171225"/>
<stop offset="1" stop-color="#171225" stop-opacity="0"/>
</radialGradient>
<radialGradient id="paint16_radial_413_2280" cx="0" cy="0" r="1" gradientUnits="userSpaceOnUse" gradientTransform="translate(2.99245 27.197) rotate(67.4706) scale(11.0723 18.3864)">
<stop stop-color="#191327"/>
<stop offset="1" stop-color="#191327" stop-opacity="0"/>
</radialGradient>
<clipPath id="clip0_413_2280">
<rect width="71.2585" height="40" fill="white"/>
</clipPath>
</defs>
</svg>
